<?xml version="1.0" standalone="no"?>
<!DOCTYPE svg PUBLIC "-//W3C//DTD SVG 20010904//EN"
 "http://www.w3.org/TR/2001/REC-SVG-20010904/DTD/svg10.dtd">
<svg version="1.0" xmlns="http://www.w3.org/2000/svg"
 width="558.000000pt" height="558.000000pt" viewBox="0 0 558.000000 558.000000"
 preserveAspectRatio="xMidYMid meet">

<g transform="translate(0.000000,558.000000) scale(0.100000,-0.100000)"
fill="#000000" stroke="none">
<path d="M2290 4194 c-173 -38 -350 -174 -422 -324 -44 -91 -68 -201 -68 -313
0 -91 21 -233 46 -309 13 -40 20 -48 40 -48 30 0 31 20 4 126 -46 177 -34 374
31 511 44 93 149 197 246 246 243 120 545 71 772 -127 36 -31 70 -56 76 -56 6
0 35 20 64 45 152 130 293 190 467 202 180 12 350 -53 466 -176 121 -127 165
-260 155 -460 -13 -235 -102 -468 -273 -713 -139 -197 -476 -502 -778 -702
l-99 -66 -36 22 c-154 93 -385 272 -553 428 -103 96 -139 117 -151 86 -8 -21
19 -52 156 -173 235 -209 530 -423 581 -423 27 0 206 116 341 220 147 114 339
285 439 391 396 421 545 990 348 1328 -14 25 -58 78 -97 116 -244 244 -656
246 -961 4 -34 -27 -65 -49 -68 -49 -4 0 -34 22 -69 48 -81 63 -120 86 -205
121 -145 60 -308 76 -452 45z"/>
<path d="M2646 3858 c-8 -13 -42 -86 -75 -163 -112 -260 -146 -334 -156 -335
-5 -1 -23 47 -40 107 l-30 108 -168 3 c-149 2 -168 1 -174 -14 -13 -34 23 -44
162 -44 l132 0 39 -147 c41 -151 59 -183 88 -153 7 8 64 131 126 273 62 141
116 257 120 257 3 0 23 -49 44 -109 21 -60 45 -112 53 -115 8 -3 92 -6 187 -6
181 0 217 8 203 44 -6 14 -28 16 -174 16 -92 0 -173 4 -179 8 -6 4 -30 65 -55
136 -54 159 -72 182 -103 134z"/>
<path d="M1505 3240 c-48 -19 -85 -83 -85 -146 l0 -34 -56 0 c-64 0 -104 -22
-123 -69 -9 -19 -12 -73 -9 -160 l3 -131 33 -32 c29 -30 38 -33 92 -33 l60 1
0 -41 c0 -60 28 -106 83 -134 53 -26 91 -24 145 9 44 27 62 74 62 160 l0 70
550 0 550 0 0 -75 c0 -85 14 -122 58 -153 99 -71 232 2 232 127 l0 40 48 -5
c39 -5 53 -2 82 18 52 36 60 59 60 191 0 176 -25 217 -135 217 l-55 0 0 38 c0
50 -28 102 -70 130 -47 32 -127 27 -166 -9 -41 -38 -49 -59 -54 -144 l-5 -80
-545 0 -545 0 -5 81 c-6 89 -21 123 -73 154 -33 21 -96 25 -132 10z m106 -63
c36 -28 39 -51 39 -337 l0 -281 -25 -24 c-37 -38 -88 -37 -122 1 -23 25 -23
29 -23 305 0 194 4 287 12 302 17 32 39 46 73 46 17 0 37 -5 46 -12z m1403
-18 l26 -31 0 -273 c0 -157 -4 -285 -10 -300 -11 -30 -60 -54 -96 -47 -13 2
-33 16 -44 30 -19 23 -20 41 -20 304 0 193 4 286 12 301 30 57 92 64 132 16z
m-1614 -179 c18 -18 20 -33 20 -129 0 -94 -3 -112 -21 -135 -25 -32 -61 -34
-89 -4 -18 19 -20 35 -20 133 0 84 4 116 16 133 19 28 67 29 94 2z m1810 0
c18 -18 20 -33 20 -129 0 -94 -3 -112 -21 -135 -12 -15 -30 -26 -44 -26 -14 0
-32 11 -44 26 -18 23 -21 41 -21 135 0 96 2 111 20 129 11 11 31 20 45 20 14
0 34 -9 45 -20z m-402 -132 l-3 -83 -545 0 -545 0 -3 83 -3 82 551 0 551 0 -3
-82z"/>
<path d="M1915 1676 c-73 -32 -116 -124 -96 -210 21 -91 76 -136 166 -136 71
0 142 44 112 69 -11 8 -23 7 -50 -4 -46 -19 -70 -19 -107 0 -38 20 -60 63 -60
117 0 99 82 155 164 113 22 -12 32 -12 42 -4 55 46 -88 91 -171 55z"/>
<path d="M2160 1558 c0 -114 3 -138 20 -165 53 -88 207 -83 252 7 14 28 18 61
18 163 l0 127 -30 0 -30 0 0 -126 c0 -125 0 -126 -29 -155 -18 -17 -40 -29
-56 -29 -16 0 -38 12 -56 29 -29 29 -29 30 -29 155 l0 126 -30 0 -30 0 0 -132z"/>
<path d="M2500 1666 c0 -23 4 -25 53 -28 l52 -3 3 -152 3 -153 29 0 30 0 0
155 0 155 55 0 c52 0 55 1 55 25 l0 25 -140 0 -140 0 0 -24z"/>
<path d="M2985 1677 c-3 -7 -4 -87 -3 -177 l3 -165 33 -3 32 -3 0 75 0 76 65
0 c63 0 65 1 65 25 0 24 -2 25 -65 25 l-65 0 0 55 0 55 81 0 c78 0 80 1 77 23
-3 21 -8 22 -111 25 -82 2 -109 0 -112 -11z"/>
<path d="M3270 1510 l0 -180 30 0 30 0 0 180 0 180 -30 0 -30 0 0 -180z"/>
<path d="M3380 1665 c0 -24 3 -25 55 -25 l55 0 0 -155 0 -155 30 0 30 0 0 155
0 155 55 0 c52 0 55 1 55 25 l0 25 -140 0 -140 0 0 -25z"/>
<path d="M2790 1480 c0 -18 7 -20 60 -20 53 0 60 2 60 20 0 18 -7 20 -60 20
-53 0 -60 -2 -60 -20z"/>
</g>
</svg>
